PathFileType	4	(X/Y/Z)	10_1_51_p1_0-515_filt_butterworth.trc
DataRate	CameraRate	NumFrames	NumMarkers	Units	OrigDataRate	OrigDataStartFrame	OrigNumFrames
59.0	59.0	6	27	m	59.0	193	515
Frame#	Time	RHip			RKnee			RAnkle			RBigToe			RSmallToe			RHeel			LHip			LKnee			LAnkle			LBigToe			LSmallToe			LHeel			Neck			Head			Nose			RShoulder			RElbow			RWrist			RThumb			RIndex			RPinky			LShoulder			LElbow			LWrist			LThumb			LIndex			LPinky			
		X1	Y1	Z1	X2	Y2	Z2	X3	Y3	Z3	X4	Y4	Z4	X5	Y5	Z5	X6	Y6	Z6	X7	Y7	Z7	X8	Y8	Z8	X9	Y9	Z9	X10	Y10	Z10	X11	Y11	Z11	X12	Y12	Z12	X13	Y13	Z13	X14	Y14	Z14	X15	Y15	Z15	X16	Y16	Z16	X17	Y17	Z17	X18	Y18	Z18	X19	Y19	Z19	X20	Y20	Z20	X21	Y21	Z21	X22	Y22	Z22	X23	Y23	Z23	X24	Y24	Z24	X25	Y25	Z25	X26	Y26	Z26	X27	Y27	Z27	
193	3.2711864406779663	0.3282319120263289	0.4611495701664619	0.9628108705067222	0.32157964922770843	0.6258376999218891	1.3931439782662514	0.30591445479210694	0.7787562626977076	1.7782816241706938	0.2808870943242475	0.6261650301793189	1.8732526385615187	0.3557735838711481	0.6477076141187594	1.8624029549408385	0.2635275059810932	0.8715875880655655	1.845973568289786	0.10478655944107093	0.4830051275608949	0.9701474222856608	0.08049695624803785	0.6336217167904241	1.3916955974448517	0.08353467779353417	0.7425758419357437	1.7398102162631526	0.09402618068586235	0.6196504811432296	1.8801617887726167	0.05108030709386701	0.6198672276355502	1.8390629262188467	0.10177421278108323	0.8086115840497945	1.7799617443932334	0.20615543428255476	0.4024839209198119	0.4666695309283444	0.22465583986113885	0.2983804345578825	0.2194788923044217	0.22335812738578215	0.26858213173209794	0.36291665167184517	0.372226783916939	0.43474470395265624	0.5541569650796526	0.42763893959680743	0.4664536119923096	0.8333830498623446	0.4283751155903455	0.443951673255742	1.0681651431172743	0.3813730509666957	0.45500851867707925	1.1893094179664945	0.4098033648312065	0.43505470687626446	1.2228858326630063	0.4260663185740637	0.4567132942343302	1.1964952716224921	0.0501123833406668	0.4285238933797294	0.5464227597290013	-0.011029625525645598	0.46439875114023865	0.8299602478369991	0.00816359587352243	0.45232623612883743	1.100590408867435	0.046810099310249376	0.4510893112716919	1.195922946544957	0.02294145680819504	0.4274828623372371	1.2052681298365722	0.012124642537894375	0.44521823228096546	1.2019926912706898
194	3.288135593220339	0.32779444237857486	0.4610897664125119	0.9594179884471457	0.32146786760685186	0.6255512476988381	1.3930692550265888	0.30597047733408395	0.7780176276969522	1.7785452708090026	0.28130816300030437	0.6260326425227482	1.8744132014366177	0.35476595916635617	0.6489271515539242	1.8643640479300878	0.26340415449158	0.8719118249374674	1.8467633902310898	0.10506616876087066	0.48383728992999026	0.968191737785505	0.08043921400322639	0.6332537692377367	1.3902782880243034	0.08370157362460076	0.7417211625887122	1.7402288173011096	0.0940439222473523	0.6197949807408383	1.88024994509945	0.051321037238944336	0.6199506079713808	1.8389104263002416	0.10213439676502371	0.8071116539483587	1.7810679639636307	0.20630126882532385	0.4024711134155704	0.4680297246537205	0.22699343643443645	0.2958509222997928	0.22047410325138644	0.22592905019395979	0.26889609133288467	0.36445440414973923	0.3722362898093211	0.43495170142667006	0.5544898878934921	0.4265070364550558	0.47015111105473634	0.833670341385468	0.42793827162175213	0.4437592429908696	1.0681734411470503	0.3814380556161493	0.45498635129765885	1.1892279326659243	0.4098175581902687	0.43510984121995266	1.2229527038444803	0.4260617341216719	0.4568521433512171	1.1967905514871608	0.050088137949290415	0.42828606665272867	0.5461160940464869	-0.010581024493136368	0.46444713692119777	0.829912443287969	0.00824627604101092	0.4529290361122026	1.101645121678927	0.04831871167085867	0.44778020005413377	1.1952544771102618	0.022969503111087648	0.4274156962247556	1.2052591260233647	0.012109525448454683	0.444982278170213	1.2016149979508621
195	3.305084745762712	0.3273331700577857	0.4612399246129225	0.9573962071002824	0.32126423218919364	0.624763033551628	1.3929853756138169	0.30616655082474514	0.7775141684269676	1.7797315108481746	0.28155392579359695	0.6252646089600358	1.8744296301052497	0.3534191211130193	0.6533362068801112	1.8669095473862778	0.2643287478700355	0.872488867104688	1.8482559793000828	0.10626259111650799	0.48373633593167403	0.9669678682226261	0.08045121609119144	0.6332127273363598	1.3896131562778573	0.08382926848252406	0.7411684818273174	1.7416308556841356	0.0940750736107781	0.6198816966170684	1.880322682357776	0.051476961161914706	0.6200022184254429	1.8374549634705115	0.10377544255738547	0.80799810755376	1.7836287435209426	0.20639203660699465	0.4023080025215921	0.468458377002882	0.22911065439800474	0.2920050276056141	0.22141811621119367	0.22790373176188566	0.2689708759792724	0.3661283637699772	0.37231705333406895	0.435489344364523	0.5553270032487199	0.4249997271548063	0.47509533753987804	0.8340269580586792	0.4279501836462023	0.44377343828163457	1.0681678350075081	0.3814860118929593	0.4549393615961988	1.1891494888039973	0.40983231525793906	0.43516832472383593	1.2229725733086276	0.42562014937371473	0.4585356780234056	1.197599998060548	0.05005872486685943	0.42767757542642687	0.5452629716389301	-0.008862811009109097	0.4646557035548885	0.8297593952034663	0.008287208060505974	0.4530251039330485	1.1020169247286413	0.04891069578410003	0.446506904911244	1.1950022068610864	0.022988376927195225	0.42732457307184935	1.2052495501864318	0.012110930543797012	0.4450783008560555	1.2016385088764086
196	3.3220338983050848	0.3267954562090332	0.4614967879012738	0.9565726130547703	0.3210431384981852	0.6236080102922104	1.3927927188726332	0.30632613964465005	0.7772334067583047	1.7812398247321553	0.2818043235839349	0.6246973526060218	1.8734102550141183	0.3527986577158165	0.6579670075954465	1.8685741737801258	0.26531840274618496	0.8729423678355034	1.8500041328664323	0.10724514221456855	0.48370950065327495	0.9664606321048699	0.08045307070282914	0.6330187323441723	1.3889845636689944	0.08380831865224551	0.7406911937677458	1.742189031539587	0.09420695196591548	0.6191878461110205	1.8800485145872188	0.05154529997062014	0.6199056542960263	1.8357810099754475	0.10560663796424351	0.8090035815085662	1.7848283077577958	0.20644813884383986	0.4021412853037243	0.46843643817521874	0.23041022733427102	0.28876597399671183	0.22166242667512878	0.22870453075959934	0.2688119384390436	0.3675735321276089	0.372445426780852	0.4361883993224651	0.5564281521459524	0.4238515564091194	0.4788671161876371	0.834272647046645	0.42806294645299964	0.44384047904885754	1.068153167195621	0.38151343815565375	0.45488978975509164	1.1890599075723554	0.40982067047875437	0.4351888733191357	1.222799244918549	0.42442915443719187	0.4620897491315172	1.1982722117055082	0.05002642834768354	0.4268561881460808	0.5441192016468911	-0.006481195205286023	0.46452242385828013	0.8295360744679673	0.008309265898519953	0.45288847555084	1.1019784722016623	0.048923042305340156	0.4465114246280412	1.1950092573263829	0.023000955383136647	0.42724419618352405	1.2052422922154005	0.012118461447505413	0.44524381241713445	1.2017717785588935
197	3.3389830508474576	0.3261618641910111	0.46097779638819314	0.9560007486900747	0.3209511701376505	0.622477403723648	1.3926108136873343	0.306386697230418	0.777146451537486	1.7823001555814266	0.2820142700144286	0.6245154800410961	1.8723884288337924	0.3536543852124208	0.6596353995705916	1.8683386648962337	0.26577063620722957	0.8731386441976126	1.8512834810220693	0.1075437279435911	0.48360717101111217	0.9662273223705993	0.08037829016690083	0.6323185462796994	1.3876978671396154	0.08365406424450811	0.7403218230510213	1.7413705028979651	0.09461638674920729	0.6163692856457094	1.8789085249042103	0.05157154564182709	0.619534950901631	1.835315003760265	0.10682010919637006	0.8090825194158722	1.784515319443733	0.20648320009882395	0.40202644249393693	0.46834944842303744	0.23083406757424266	0.28728404481729086	0.2213327748237182	0.22877445540958072	0.26894543640286434	0.36819848096885377	0.3725334636521964	0.4366440592829111	0.5572433924117401	0.4234185220386514	0.48028875432024154	0.8343529772674265	0.42813049412428134	0.4439129214652375	1.0681448555939597	0.3815176106154158	0.4548900630887864	1.1890020998195834	0.4097182770993844	0.43499806112080497	1.2222983068962767	0.422838093617098	0.4664823564953912	1.1984570714586875	0.05000612874176753	0.42619624626898683	0.5432164744475471	-0.004690779608620186	0.4642347832854305	0.8292943648006357	0.008330581059296223	0.45278147219465914	1.101868036882636	0.04879322128143175	0.4468070071977932	1.1950745680971548	0.02300197631447709	0.4272003152012024	1.2052373480374956	0.012110187340968451	0.4453484438743076	1.2018704797973703
198	3.3559322033898304	0.32554482408265506	0.4586766262373101	0.9552160931460205	0.32101476759367953	0.6216761340440192	1.3925322527231065	0.30638297885678245	0.7771353277557442	1.7826608894219351	0.28211914671773364	0.6245423431344364	1.87200682647511	0.3552590424291188	0.6575813455320676	1.8664691811313108	0.26580376223796265	0.8732139641585656	1.8518199029633218	0.10736911329570287	0.48306048610391594	0.9659402193137225	0.08014985290889075	0.6313027510575051	1.3859196670084126	0.08343034679491658	0.7402870610487862	1.7403515804456242	0.09522319625500217	0.6117665108696583	1.8770676373447657	0.051607197740435484	0.6189878264289199	1.8361019984732456	0.10735431459144841	0.8096267116999211	1.7838400485203965	0.2064890054126276	0.40200210823393906	0.4683216263843301	0.2307821475657459	0.287116656092628	0.22095626563373139	0.22885680747225393	0.27030105982324126	0.36789212274257266	0.37251001213261203	0.43659083727310566	0.5574965794975523	0.42348933731265104	0.4800728217666349	0.8344410032307008	0.42814449166962987	0.44398175123992467	1.068155671575693	0.38151359450453254	0.4549749357759676	1.189018459448327	0.40947570155474766	0.434432408148494	1.2216651275269474	0.4217038786340595	0.4699992154156537	1.1984192351616052	0.050000929847389256	0.42588372431555377	0.5427984601835322	-0.004039197872143729	0.4638145768520482	0.829089610443543	0.008351000106351392	0.45275393037592754	1.101814335422254	0.048703209427167736	0.44698854322992376	1.1951151277327234	0.022983712092027448	0.4271814457778361	1.205233442623731	0.01203896373199455	0.44534357794928614	1.2018417557045653
